<svg xmlns="http://www.w3.org/2000/svg" version="1.1" xmlns:xlink="http://www.w3.org/1999/xlink" width="1000" height="1000"><style>
    #light-icon {
      display: inline;
    }
    #dark-icon {
      display: none;
    }

    @media (prefers-color-scheme: dark) {
      #light-icon {
        display: none;
      }
      #dark-icon {
        display: inline;
      }
    }
  </style><g id="light-icon"><svg xmlns="http://www.w3.org/2000/svg" version="1.1" xmlns:xlink="http://www.w3.org/1999/xlink" width="1000" height="1000"><g clip-path="url(#SvgjsClipPath1119)"><rect width="1000" height="1000" fill="#ffffff"></rect><g transform="matrix(16.949152542372882,0,0,16.949152542372882,-5.684341886080802e-14,25.423728813559308)"><svg xmlns="http://www.w3.org/2000/svg" version="1.1" xmlns:xlink="http://www.w3.org/1999/xlink" width="59" height="56"><svg width="59" height="56" viewBox="0 0 59 56" fill="none" xmlns="http://www.w3.org/2000/svg">
<path d="M13.3662 34.2606H7.00318C6.22601 36.5795 6.09184 38.6368 6.32741 40.397M13.3662 34.2606C12.6783 32.8624 11.7153 29.1029 13.3662 25.2502C13.3662 25.2502 12.1108 21.646 9.49681 24.9395C8.43631 25.1984 6.17771 25.0327 5.62739 22.2985L9.49681 17.7933C10.242 17.0684 12.0592 15.5407 13.3662 15.23C14.5127 14.9193 17.0637 14.6086 19.2994 15.6184H23.9427C24.2006 16.5246 23.8911 18.4303 20.5892 18.8031M13.3662 34.2606L9.84076 37.4453M13.3662 34.2606C14.5987 35.9177 17.5624 39.4959 19.5573 40.5523M20.5892 18.8031C20.2739 18.8031 19.5057 18.7254 18.9554 18.4147M20.5892 18.8031C20.5605 20.3566 20.8987 23.6656 23.1688 25.0948M23.1688 25.0948L38.3885 11.3463L37.7006 10.5695M23.1688 25.0948C24.172 26.1046 25.4045 27.4251 29.1019 28.0465C32.7134 28.2278 40.9853 28.3728 45.1815 27.5028M37.7006 10.5695L40.7962 7.69549M37.7006 10.5695C39.2828 11.1909 41.6847 12.8998 42.6879 13.6765M45.1815 5.28755L43.8917 4.82149L40.7962 7.69549M45.1815 5.28755L46.9873 3.57868M45.1815 5.28755C45.9981 5.71313 47.4222 6.66568 48.8936 8.08387M46.9873 3.57868C46.758 3.00906 46.4369 1.79214 46.9873 1.48144C47.6752 1.09306 48.707 0.627005 49.3949 1.48144C50.0828 2.33587 50.0828 2.8796 49.5669 3.26798C49.3089 3.60457 48.4318 4.13795 46.9873 3.57868ZM50.4267 14.531L52.3185 12.8998V12.5114C51.3544 10.7415 50.1079 9.25413 48.8936 8.08387M50.4267 14.531C51.3439 15.3595 53.5739 17.1409 55.156 17.638H55.5L52.3185 20.512M50.4267 14.531L49.3949 15.4631M52.3185 20.512L49.1369 23.386C47.0446 22.5316 42.3955 19.7818 40.5382 15.6184M52.3185 20.512C50.5299 20.1391 48.2771 18.1299 47.2452 17.3273M40.5382 15.6184L42.6879 13.6765M40.5382 15.6184C42.258 18.2905 44.8089 18.596 45.8694 18.4147M42.6879 13.6765L45.8694 10.8025M42.6879 13.6765C44.4076 15.23 45.5255 17.4826 45.8694 18.4147M45.8694 10.8025L48.8936 8.08387M45.8694 10.8025C44.6369 9.84452 41.8968 7.88192 40.7962 7.69549M45.8694 10.8025C46.8153 11.8382 48.8446 14.2203 49.3949 15.4631M49.3949 15.4631L47.2452 17.3273M47.2452 17.3273L45.8694 18.4147M45.1815 27.5028C46.1274 28.2278 48.0191 30.3457 48.0191 33.0178M45.1815 27.5028C47.3885 28.1501 51.8369 30.2059 51.9745 33.2508C51.2796 34.7008 49.5157 36.6841 48.0191 33.0178M48.0191 33.0178C48.1338 33.9499 48.3287 36.2802 48.1911 38.1444C48.1338 38.9988 48.4834 41.0805 50.3408 42.5719L50.9427 43.1156L47.5032 55H43.5478C44.8089 53.0063 47.2624 48.0403 46.9873 44.1254C45.6115 43.1156 42.6019 40.6145 41.5701 38.6881M41.5701 38.6881C41.914 39.8015 42.7911 42.4476 43.5478 44.1254V44.6691L37.2707 55H33.3153C34.4045 53.9384 36.8064 51.3026 37.7006 49.252C38.1019 48.3976 38.8873 46.3469 38.8185 44.9798C38.7325 44.0218 38.1994 41.8573 36.7548 40.863L36.4108 40.5523M41.5701 38.6881C41.4921 38.5774 41.3761 38.3886 41.2512 38.1444M40.7102 36.6685C40.8364 37.2385 41.0547 37.76 41.2512 38.1444M36.4108 40.5523C37.4881 40.1898 39.9643 39.2008 41.2512 38.1444M36.4108 40.5523C35.0064 41.0184 31.028 41.7796 26.3503 41.0961L26.0064 41.6398C25.6911 43.1156 25.0261 46.4091 24.8885 47.7762C24.751 49.1433 24.3153 53.1617 24.1146 55H20.3312C20.8185 54.2232 21.8102 52.2658 21.879 50.6502C21.9478 49.0345 21.9076 47.4396 21.879 46.8441C21.707 45.7825 21.1911 43.4419 20.8471 42.5719L19.5573 40.5523M19.5573 40.5523C18.4968 40.8371 15.0688 40.6145 9.84076 37.4453M9.84076 37.4453C9.23885 38.5845 8.60255 41.4223 10.8726 43.6593L11.1306 43.8147L9.84076 46.9994C8.59669 46.0629 6.77991 43.7781 6.32741 40.397M6.32741 40.397L1.5 44.6691" stroke="black" stroke-width="2"></path>
</svg></svg></g></g><defs><clipPath id="SvgjsClipPath1119"><rect width="1000" height="1000" x="0" y="0" rx="0" ry="0"></rect></clipPath></defs></svg></g><g id="dark-icon"><svg xmlns="http://www.w3.org/2000/svg" version="1.1" xmlns:xlink="http://www.w3.org/1999/xlink" width="1000" height="1000"><g><g transform="matrix(16.949152542372882,0,0,16.949152542372882,-5.684341886080802e-14,25.423728813559308)" style="filter: invert(100%)"><svg xmlns="http://www.w3.org/2000/svg" version="1.1" xmlns:xlink="http://www.w3.org/1999/xlink" width="59" height="56"><svg width="59" height="56" viewBox="0 0 59 56" fill="none" xmlns="http://www.w3.org/2000/svg">
<path d="M13.3662 34.2606H7.00318C6.22601 36.5795 6.09184 38.6368 6.32741 40.397M13.3662 34.2606C12.6783 32.8624 11.7153 29.1029 13.3662 25.2502C13.3662 25.2502 12.1108 21.646 9.49681 24.9395C8.43631 25.1984 6.17771 25.0327 5.62739 22.2985L9.49681 17.7933C10.242 17.0684 12.0592 15.5407 13.3662 15.23C14.5127 14.9193 17.0637 14.6086 19.2994 15.6184H23.9427C24.2006 16.5246 23.8911 18.4303 20.5892 18.8031M13.3662 34.2606L9.84076 37.4453M13.3662 34.2606C14.5987 35.9177 17.5624 39.4959 19.5573 40.5523M20.5892 18.8031C20.2739 18.8031 19.5057 18.7254 18.9554 18.4147M20.5892 18.8031C20.5605 20.3566 20.8987 23.6656 23.1688 25.0948M23.1688 25.0948L38.3885 11.3463L37.7006 10.5695M23.1688 25.0948C24.172 26.1046 25.4045 27.4251 29.1019 28.0465C32.7134 28.2278 40.9853 28.3728 45.1815 27.5028M37.7006 10.5695L40.7962 7.69549M37.7006 10.5695C39.2828 11.1909 41.6847 12.8998 42.6879 13.6765M45.1815 5.28755L43.8917 4.82149L40.7962 7.69549M45.1815 5.28755L46.9873 3.57868M45.1815 5.28755C45.9981 5.71313 47.4222 6.66568 48.8936 8.08387M46.9873 3.57868C46.758 3.00906 46.4369 1.79214 46.9873 1.48144C47.6752 1.09306 48.707 0.627005 49.3949 1.48144C50.0828 2.33587 50.0828 2.8796 49.5669 3.26798C49.3089 3.60457 48.4318 4.13795 46.9873 3.57868ZM50.4267 14.531L52.3185 12.8998V12.5114C51.3544 10.7415 50.1079 9.25413 48.8936 8.08387M50.4267 14.531C51.3439 15.3595 53.5739 17.1409 55.156 17.638H55.5L52.3185 20.512M50.4267 14.531L49.3949 15.4631M52.3185 20.512L49.1369 23.386C47.0446 22.5316 42.3955 19.7818 40.5382 15.6184M52.3185 20.512C50.5299 20.1391 48.2771 18.1299 47.2452 17.3273M40.5382 15.6184L42.6879 13.6765M40.5382 15.6184C42.258 18.2905 44.8089 18.596 45.8694 18.4147M42.6879 13.6765L45.8694 10.8025M42.6879 13.6765C44.4076 15.23 45.5255 17.4826 45.8694 18.4147M45.8694 10.8025L48.8936 8.08387M45.8694 10.8025C44.6369 9.84452 41.8968 7.88192 40.7962 7.69549M45.8694 10.8025C46.8153 11.8382 48.8446 14.2203 49.3949 15.4631M49.3949 15.4631L47.2452 17.3273M47.2452 17.3273L45.8694 18.4147M45.1815 27.5028C46.1274 28.2278 48.0191 30.3457 48.0191 33.0178M45.1815 27.5028C47.3885 28.1501 51.8369 30.2059 51.9745 33.2508C51.2796 34.7008 49.5157 36.6841 48.0191 33.0178M48.0191 33.0178C48.1338 33.9499 48.3287 36.2802 48.1911 38.1444C48.1338 38.9988 48.4834 41.0805 50.3408 42.5719L50.9427 43.1156L47.5032 55H43.5478C44.8089 53.0063 47.2624 48.0403 46.9873 44.1254C45.6115 43.1156 42.6019 40.6145 41.5701 38.6881M41.5701 38.6881C41.914 39.8015 42.7911 42.4476 43.5478 44.1254V44.6691L37.2707 55H33.3153C34.4045 53.9384 36.8064 51.3026 37.7006 49.252C38.1019 48.3976 38.8873 46.3469 38.8185 44.9798C38.7325 44.0218 38.1994 41.8573 36.7548 40.863L36.4108 40.5523M41.5701 38.6881C41.4921 38.5774 41.3761 38.3886 41.2512 38.1444M40.7102 36.6685C40.8364 37.2385 41.0547 37.76 41.2512 38.1444M36.4108 40.5523C37.4881 40.1898 39.9643 39.2008 41.2512 38.1444M36.4108 40.5523C35.0064 41.0184 31.028 41.7796 26.3503 41.0961L26.0064 41.6398C25.6911 43.1156 25.0261 46.4091 24.8885 47.7762C24.751 49.1433 24.3153 53.1617 24.1146 55H20.3312C20.8185 54.2232 21.8102 52.2658 21.879 50.6502C21.9478 49.0345 21.9076 47.4396 21.879 46.8441C21.707 45.7825 21.1911 43.4419 20.8471 42.5719L19.5573 40.5523M19.5573 40.5523C18.4968 40.8371 15.0688 40.6145 9.84076 37.4453M9.84076 37.4453C9.23885 38.5845 8.60255 41.4223 10.8726 43.6593L11.1306 43.8147L9.84076 46.9994C8.59669 46.0629 6.77991 43.7781 6.32741 40.397M6.32741 40.397L1.5 44.6691" stroke="black" stroke-width="2"></path>
</svg></svg></g></g></svg></g></svg>