<svg width="64" height="62" viewBox="0 0 64 62" fill="none" xmlns="http://www.w3.org/2000/svg">
<path d="M14.1847 37.9562H7.11465C6.25112 40.5328 6.10205 42.8187 6.36379 44.7744M14.1847 37.9562C13.4204 36.4027 12.3503 32.2255 14.1847 27.9447C14.1847 27.9447 12.7898 23.94 9.88535 27.5994C8.70701 27.8871 6.19745 27.703 5.58599 24.665L9.88535 19.6593C10.7134 18.8537 12.7325 17.1564 14.1847 16.8112C15.4586 16.4659 18.293 16.1207 20.7771 17.2427H25.9363C26.2229 18.2496 25.879 20.367 22.2102 20.7812M14.1847 37.9562L10.2675 41.4948M14.1847 37.9562C15.5541 39.7974 18.8471 43.7733 21.0637 44.947M22.2102 20.7812C21.8599 20.7812 21.0064 20.6949 20.3949 20.3497M22.2102 20.7812C22.1783 22.5074 22.5541 26.184 25.0764 27.7721M25.0764 27.7721L41.9873 12.4958L41.2229 11.6328M25.0764 27.7721C26.1911 28.894 27.5605 30.3612 31.6688 31.0517C35.6815 31.2531 44.8726 31.4142 49.535 30.4476M41.2229 11.6328L44.6624 8.43944M41.2229 11.6328C42.9809 12.3232 45.6497 14.222 46.7643 15.085M49.535 5.76394L48.1019 5.2461L44.6624 8.43944M49.535 5.76394L51.5414 3.8652M49.535 5.76394C50.4424 6.23681 52.0246 7.2952 53.6596 8.87097M51.5414 3.8652C51.2866 3.23229 50.9299 1.88016 51.5414 1.53493C52.3057 1.1034 53.4522 0.585562 54.2166 1.53493C54.9809 2.4843 54.9809 3.08845 54.4076 3.51998C54.121 3.89397 53.1465 4.48661 51.5414 3.8652ZM55.3631 16.0344L57.465 14.222V13.7904C56.3937 11.8238 55.0087 10.1713 53.6596 8.87097M55.3631 16.0344C56.3822 16.955 58.8599 18.9343 60.6178 19.4867H61L57.465 22.68M55.3631 16.0344L54.2166 17.0701M57.465 22.68L53.9299 25.8733C51.6051 24.9239 46.4395 21.8687 44.3758 17.2427M57.465 22.68C55.4777 22.2657 52.9745 20.0333 51.828 19.1414M44.3758 17.2427L46.7643 15.085M44.3758 17.2427C46.2866 20.2116 49.121 20.5511 50.2994 20.3497M46.7643 15.085L50.2994 11.8917M46.7643 15.085C48.6752 16.8112 49.9172 19.314 50.2994 20.3497M50.2994 11.8917L53.6596 8.87097M50.2994 11.8917C48.9299 10.8272 45.8853 8.64657 44.6624 8.43944M50.2994 11.8917C51.3503 13.0424 53.6051 15.6892 54.2166 17.0701M54.2166 17.0701L51.828 19.1414M51.828 19.1414L50.2994 20.3497M49.535 30.4476C50.586 31.2531 52.6879 33.6064 52.6879 36.5753M49.535 30.4476C51.9873 31.1668 56.9299 33.451 57.0828 36.8342C56.3107 38.4453 54.3508 40.649 52.6879 36.5753M52.6879 36.5753C52.8153 37.611 53.0318 40.2002 52.879 42.2715C52.8153 43.2209 53.2038 45.5339 55.2675 47.191L55.9363 47.7951L52.1146 61H47.7197C49.121 58.7848 51.8471 53.267 51.5414 48.9171C50.0127 47.7951 46.6688 45.0161 45.5223 42.8757M45.5223 42.8757C45.9045 44.1127 46.879 47.0529 47.7197 48.9171V49.5213L40.7452 61H36.3503C37.5605 59.8205 40.2293 56.8918 41.2229 54.6133C41.6688 53.664 42.5414 51.3855 42.465 49.8665C42.3694 48.802 41.7771 46.397 40.172 45.2922L39.7898 44.947M45.5223 42.8757C45.4357 42.7527 45.3067 42.5429 45.168 42.2715M44.5669 40.6317C44.7071 41.265 44.9497 41.8445 45.168 42.2715M39.7898 44.947C40.9867 44.5443 43.7381 43.4453 45.168 42.2715M39.7898 44.947C38.2293 45.4649 33.8089 46.3107 28.6115 45.5512L28.2293 46.1553C27.879 47.7951 27.1401 51.4545 26.9873 52.9735C26.8344 54.4925 26.3503 58.9574 26.1274 61H21.9236C22.465 60.1369 23.5669 57.962 23.6433 56.1668C23.7197 54.3717 23.6752 52.5995 23.6433 51.9378C23.4522 50.7583 22.879 48.1576 22.4968 47.191L21.0637 44.947M21.0637 44.947C19.8854 45.2635 16.0764 45.0161 10.2675 41.4948M10.2675 41.4948C9.59873 42.7606 8.89172 45.9136 11.414 48.3993L11.7006 48.5719L10.2675 52.1104C8.88521 51.0699 6.86656 48.5312 6.36379 44.7744M6.36379 44.7744L1 49.5213" stroke="#E0CAA5" stroke-width="2"/>
</svg>
