<svg width="126" height="126" viewBox="0 0 126 126" fill="none" xmlns="http://www.w3.org/2000/svg">
<mask id="mask0_8_2063" style="mask-type:luminance" maskUnits="userSpaceOnUse" x="0" y="0" width="126" height="126">
<path d="M43.4482 0H39.1034V4.34483H43.4482V0Z" fill="white"/>
<path d="M60.8276 0H56.4827V4.34483H60.8276V0Z" fill="white"/>
<path d="M65.1723 0H60.8275V4.34483H65.1723V0Z" fill="white"/>
<path d="M69.5173 0H65.1725V4.34483H69.5173V0Z" fill="white"/>
<path d="M78.2069 0H73.8621V4.34483H78.2069V0Z" fill="white"/>
<path d="M39.1034 4.34485H34.7586V8.68968H39.1034V4.34485Z" fill="white"/>
<path d="M52.1379 4.34485H47.7931V8.68968H52.1379V4.34485Z" fill="white"/>
<path d="M56.4827 4.34485H52.1379V8.68968H56.4827V4.34485Z" fill="white"/>
<path d="M69.5173 4.34485H65.1725V8.68968H69.5173V4.34485Z" fill="white"/>
<path d="M78.2069 4.34485H73.8621V8.68968H78.2069V4.34485Z" fill="white"/>
<path d="M82.5517 4.34485H78.2069V8.68968H82.5517V4.34485Z" fill="white"/>
<path d="M39.1034 8.68964H34.7586V13.0345H39.1034V8.68964Z" fill="white"/>
<path d="M43.4482 8.68964H39.1034V13.0345H43.4482V8.68964Z" fill="white"/>
<path d="M47.7931 8.68964H43.4482V13.0345H47.7931V8.68964Z" fill="white"/>
<path d="M56.4827 8.68964H52.1379V13.0345H56.4827V8.68964Z" fill="white"/>
<path d="M65.1723 8.68964H60.8275V13.0345H65.1723V8.68964Z" fill="white"/>
<path d="M73.8621 8.68964H69.5173V13.0345H73.8621V8.68964Z" fill="white"/>
<path d="M82.5517 8.68964H78.2069V13.0345H82.5517V8.68964Z" fill="white"/>
<path d="M91.2414 8.68964H86.8966V13.0345H91.2414V8.68964Z" fill="white"/>
<path d="M39.1034 13.0345H34.7586V17.3793H39.1034V13.0345Z" fill="white"/>
<path d="M56.4827 13.0345H52.1379V17.3793H56.4827V13.0345Z" fill="white"/>
<path d="M65.1723 13.0345H60.8275V17.3793H65.1723V13.0345Z" fill="white"/>
<path d="M69.5173 13.0345H65.1725V17.3793H69.5173V13.0345Z" fill="white"/>
<path d="M73.8621 13.0345H69.5173V17.3793H73.8621V13.0345Z" fill="white"/>
<path d="M78.2069 13.0345H73.8621V17.3793H78.2069V13.0345Z" fill="white"/>
<path d="M91.2414 13.0345H86.8966V17.3793H91.2414V13.0345Z" fill="white"/>
<path d="M52.1379 17.3793H47.7931V21.7241H52.1379V17.3793Z" fill="white"/>
<path d="M60.8276 17.3793H56.4827V21.7241H60.8276V17.3793Z" fill="white"/>
<path d="M65.1723 17.3793H60.8275V21.7241H65.1723V17.3793Z" fill="white"/>
<path d="M69.5173 17.3793H65.1725V21.7241H69.5173V17.3793Z" fill="white"/>
<path d="M78.2069 17.3793H73.8621V21.7241H78.2069V17.3793Z" fill="white"/>
<path d="M82.5517 17.3793H78.2069V21.7241H82.5517V17.3793Z" fill="white"/>
<path d="M86.8966 17.3793H82.5518V21.7241H86.8966V17.3793Z" fill="white"/>
<path d="M91.2414 17.3793H86.8966V21.7241H91.2414V17.3793Z" fill="white"/>
<path d="M47.7931 21.7241H43.4482V26.0689H47.7931V21.7241Z" fill="white"/>
<path d="M52.1379 21.7241H47.7931V26.0689H52.1379V21.7241Z" fill="white"/>
<path d="M60.8276 21.7241H56.4827V26.0689H60.8276V21.7241Z" fill="white"/>
<path d="M65.1723 21.7241H60.8275V26.0689H65.1723V21.7241Z" fill="white"/>
<path d="M73.8621 21.7241H69.5173V26.0689H73.8621V21.7241Z" fill="white"/>
<path d="M78.2069 21.7241H73.8621V26.0689H78.2069V21.7241Z" fill="white"/>
<path d="M91.2414 21.7241H86.8966V26.0689H91.2414V21.7241Z" fill="white"/>
<path d="M39.1034 26.069H34.7586V30.4138H39.1034V26.069Z" fill="white"/>
<path d="M47.7931 26.069H43.4482V30.4138H47.7931V26.069Z" fill="white"/>
<path d="M56.4827 26.069H52.1379V30.4138H56.4827V26.069Z" fill="white"/>
<path d="M65.1723 26.069H60.8275V30.4138H65.1723V26.069Z" fill="white"/>
<path d="M73.8621 26.069H69.5173V30.4138H73.8621V26.069Z" fill="white"/>
<path d="M82.5517 26.069H78.2069V30.4138H82.5517V26.069Z" fill="white"/>
<path d="M91.2414 26.069H86.8966V30.4138H91.2414V26.069Z" fill="white"/>
<path d="M39.1034 30.4138H34.7586V34.7586H39.1034V30.4138Z" fill="white"/>
<path d="M60.8276 30.4138H56.4827V34.7586H60.8276V30.4138Z" fill="white"/>
<path d="M69.5173 30.4138H65.1725V34.7586H69.5173V30.4138Z" fill="white"/>
<path d="M91.2414 30.4138H86.8966V34.7586H91.2414V30.4138Z" fill="white"/>
<path d="M4.34483 34.7586H0V39.1034H4.34483V34.7586Z" fill="white"/>
<path d="M30.4138 34.7586H26.069V39.1034H30.4138V34.7586Z" fill="white"/>
<path d="M39.1034 34.7586H34.7586V39.1034H39.1034V34.7586Z" fill="white"/>
<path d="M43.4482 34.7586H39.1034V39.1034H43.4482V34.7586Z" fill="white"/>
<path d="M47.7931 34.7586H43.4482V39.1034H47.7931V34.7586Z" fill="white"/>
<path d="M56.4827 34.7586H52.1379V39.1034H56.4827V34.7586Z" fill="white"/>
<path d="M65.1723 34.7586H60.8275V39.1034H65.1723V34.7586Z" fill="white"/>
<path d="M69.5173 34.7586H65.1725V39.1034H69.5173V34.7586Z" fill="white"/>
<path d="M73.8621 34.7586H69.5173V39.1034H73.8621V34.7586Z" fill="white"/>
<path d="M78.2069 34.7586H73.8621V39.1034H78.2069V34.7586Z" fill="white"/>
<path d="M95.5862 34.7586H91.2414V39.1034H95.5862V34.7586Z" fill="white"/>
<path d="M99.9311 34.7586H95.5862V39.1034H99.9311V34.7586Z" fill="white"/>
<path d="M112.966 34.7586H108.621V39.1034H112.966V34.7586Z" fill="white"/>
<path d="M117.31 34.7586H112.966V39.1034H117.31V34.7586Z" fill="white"/>
<path d="M121.655 34.7586H117.31V39.1034H121.655V34.7586Z" fill="white"/>
<path d="M17.3793 39.1034H13.0345V43.4482H17.3793V39.1034Z" fill="white"/>
<path d="M26.0689 39.1034H21.7241V43.4482H26.0689V39.1034Z" fill="white"/>
<path d="M34.7586 39.1034H30.4138V43.4482H34.7586V39.1034Z" fill="white"/>
<path d="M47.7931 39.1034H43.4482V43.4482H47.7931V39.1034Z" fill="white"/>
<path d="M52.1379 39.1034H47.7931V43.4482H52.1379V39.1034Z" fill="white"/>
<path d="M56.4827 39.1034H52.1379V43.4482H56.4827V39.1034Z" fill="white"/>
<path d="M65.1723 39.1034H60.8275V43.4482H65.1723V39.1034Z" fill="white"/>
<path d="M69.5173 39.1034H65.1725V43.4482H69.5173V39.1034Z" fill="white"/>
<path d="M86.8966 39.1034H82.5518V43.4482H86.8966V39.1034Z" fill="white"/>
<path d="M95.5862 39.1034H91.2414V43.4482H95.5862V39.1034Z" fill="white"/>
<path d="M104.276 39.1034H99.931V43.4482H104.276V39.1034Z" fill="white"/>
<path d="M108.621 39.1034H104.276V43.4482H108.621V39.1034Z" fill="white"/>
<path d="M117.31 39.1034H112.966V43.4482H117.31V39.1034Z" fill="white"/>
<path d="M121.655 39.1034H117.31V43.4482H121.655V39.1034Z" fill="white"/>
<path d="M13.0345 43.4482H8.68964V47.7931H13.0345V43.4482Z" fill="white"/>
<path d="M21.7241 43.4482H17.3793V47.7931H21.7241V43.4482Z" fill="white"/>
<path d="M26.0689 43.4482H21.7241V47.7931H26.0689V43.4482Z" fill="white"/>
<path d="M30.4138 43.4482H26.069V47.7931H30.4138V43.4482Z" fill="white"/>
<path d="M39.1034 43.4482H34.7586V47.7931H39.1034V43.4482Z" fill="white"/>
<path d="M56.4827 43.4482H52.1379V47.7931H56.4827V43.4482Z" fill="white"/>
<path d="M69.5173 43.4482H65.1725V47.7931H69.5173V43.4482Z" fill="white"/>
<path d="M73.8621 43.4482H69.5173V47.7931H73.8621V43.4482Z" fill="white"/>
<path d="M78.2069 43.4482H73.8621V47.7931H78.2069V43.4482Z" fill="white"/>
<path d="M82.5517 43.4482H78.2069V47.7931H82.5517V43.4482Z" fill="white"/>
<path d="M108.621 43.4482H104.276V47.7931H108.621V43.4482Z" fill="white"/>
<path d="M4.34483 47.7931H0V52.1379H4.34483V47.7931Z" fill="white"/>
<path d="M8.68968 47.7931H4.34485V52.1379H8.68968V47.7931Z" fill="white"/>
<path d="M17.3793 47.7931H13.0345V52.1379H17.3793V47.7931Z" fill="white"/>
<path d="M21.7241 47.7931H17.3793V52.1379H21.7241V47.7931Z" fill="white"/>
<path d="M26.0689 47.7931H21.7241V52.1379H26.0689V47.7931Z" fill="white"/>
<path d="M52.1379 47.7931H47.7931V52.1379H52.1379V47.7931Z" fill="white"/>
<path d="M65.1723 47.7931H60.8275V52.1379H65.1723V47.7931Z" fill="white"/>
<path d="M73.8621 47.7931H69.5173V52.1379H73.8621V47.7931Z" fill="white"/>
<path d="M82.5517 47.7931H78.2069V52.1379H82.5517V47.7931Z" fill="white"/>
<path d="M95.5862 47.7931H91.2414V52.1379H95.5862V47.7931Z" fill="white"/>
<path d="M112.966 47.7931H108.621V52.1379H112.966V47.7931Z" fill="white"/>
<path d="M4.34483 52.1379H0V56.4827H4.34483V52.1379Z" fill="white"/>
<path d="M8.68968 52.1379H4.34485V56.4827H8.68968V52.1379Z" fill="white"/>
<path d="M26.0689 52.1379H21.7241V56.4827H26.0689V52.1379Z" fill="white"/>
<path d="M30.4138 52.1379H26.069V56.4827H30.4138V52.1379Z" fill="white"/>
<path d="M34.7586 52.1379H30.4138V56.4827H34.7586V52.1379Z" fill="white"/>
<path d="M47.7931 52.1379H43.4482V56.4827H47.7931V52.1379Z" fill="white"/>
<path d="M56.4827 52.1379H52.1379V56.4827H56.4827V52.1379Z" fill="white"/>
<path d="M60.8276 52.1379H56.4827V56.4827H60.8276V52.1379Z" fill="white"/>
<path d="M65.1723 52.1379H60.8275V56.4827H65.1723V52.1379Z" fill="white"/>
<path d="M69.5173 52.1379H65.1725V56.4827H69.5173V52.1379Z" fill="white"/>
<path d="M86.8966 52.1379H82.5518V56.4827H86.8966V52.1379Z" fill="white"/>
<path d="M99.9311 52.1379H95.5862V56.4827H99.9311V52.1379Z" fill="white"/>
<path d="M104.276 52.1379H99.931V56.4827H104.276V52.1379Z" fill="white"/>
<path d="M126 52.1379H121.655V56.4827H126V52.1379Z" fill="white"/>
<path d="M4.34483 56.4827H0V60.8276H4.34483V56.4827Z" fill="white"/>
<path d="M8.68968 56.4827H4.34485V60.8276H8.68968V56.4827Z" fill="white"/>
<path d="M17.3793 56.4827H13.0345V60.8276H17.3793V56.4827Z" fill="white"/>
<path d="M34.7586 56.4827H30.4138V60.8276H34.7586V56.4827Z" fill="white"/>
<path d="M39.1034 56.4827H34.7586V60.8276H39.1034V56.4827Z" fill="white"/>
<path d="M43.4482 56.4827H39.1034V60.8276H43.4482V56.4827Z" fill="white"/>
<path d="M60.8276 56.4827H56.4827V60.8276H60.8276V56.4827Z" fill="white"/>
<path d="M65.1723 56.4827H60.8275V60.8276H65.1723V56.4827Z" fill="white"/>
<path d="M69.5173 56.4827H65.1725V60.8276H69.5173V56.4827Z" fill="white"/>
<path d="M73.8621 56.4827H69.5173V60.8276H73.8621V56.4827Z" fill="white"/>
<path d="M78.2069 56.4827H73.8621V60.8276H78.2069V56.4827Z" fill="white"/>
<path d="M82.5517 56.4827H78.2069V60.8276H82.5517V56.4827Z" fill="white"/>
<path d="M86.8966 56.4827H82.5518V60.8276H86.8966V56.4827Z" fill="white"/>
<path d="M91.2414 56.4827H86.8966V60.8276H91.2414V56.4827Z" fill="white"/>
<path d="M99.9311 56.4827H95.5862V60.8276H99.9311V56.4827Z" fill="white"/>
<path d="M104.276 56.4827H99.931V60.8276H104.276V56.4827Z" fill="white"/>
<path d="M108.621 56.4827H104.276V60.8276H108.621V56.4827Z" fill="white"/>
<path d="M121.655 56.4827H117.31V60.8276H121.655V56.4827Z" fill="white"/>
<path d="M126 56.4827H121.655V60.8276H126V56.4827Z" fill="white"/>
<path d="M21.7241 60.8275H17.3793V65.1723H21.7241V60.8275Z" fill="white"/>
<path d="M30.4138 60.8275H26.069V65.1723H30.4138V60.8275Z" fill="white"/>
<path d="M39.1034 60.8275H34.7586V65.1723H39.1034V60.8275Z" fill="white"/>
<path d="M47.7931 60.8275H43.4482V65.1723H47.7931V60.8275Z" fill="white"/>
<path d="M52.1379 60.8275H47.7931V65.1723H52.1379V60.8275Z" fill="white"/>
<path d="M56.4827 60.8275H52.1379V65.1723H56.4827V60.8275Z" fill="white"/>
<path d="M60.8276 60.8275H56.4827V65.1723H60.8276V60.8275Z" fill="white"/>
<path d="M65.1723 60.8275H60.8275V65.1723H65.1723V60.8275Z" fill="white"/>
<path d="M69.5173 60.8275H65.1725V65.1723H69.5173V60.8275Z" fill="white"/>
<path d="M91.2414 60.8275H86.8966V65.1723H91.2414V60.8275Z" fill="white"/>
<path d="M95.5862 60.8275H91.2414V65.1723H95.5862V60.8275Z" fill="white"/>
<path d="M108.621 60.8275H104.276V65.1723H108.621V60.8275Z" fill="white"/>
<path d="M112.966 60.8275H108.621V65.1723H112.966V60.8275Z" fill="white"/>
<path d="M117.31 60.8275H112.966V65.1723H117.31V60.8275Z" fill="white"/>
<path d="M4.34483 65.1725H0V69.5173H4.34483V65.1725Z" fill="white"/>
<path d="M8.68968 65.1725H4.34485V69.5173H8.68968V65.1725Z" fill="white"/>
<path d="M17.3793 65.1725H13.0345V69.5173H17.3793V65.1725Z" fill="white"/>
<path d="M26.0689 65.1725H21.7241V69.5173H26.0689V65.1725Z" fill="white"/>
<path d="M39.1034 65.1725H34.7586V69.5173H39.1034V65.1725Z" fill="white"/>
<path d="M43.4482 65.1725H39.1034V69.5173H43.4482V65.1725Z" fill="white"/>
<path d="M52.1379 65.1725H47.7931V69.5173H52.1379V65.1725Z" fill="white"/>
<path d="M60.8276 65.1725H56.4827V69.5173H60.8276V65.1725Z" fill="white"/>
<path d="M65.1723 65.1725H60.8275V69.5173H65.1723V65.1725Z" fill="white"/>
<path d="M69.5173 65.1725H65.1725V69.5173H69.5173V65.1725Z" fill="white"/>
<path d="M86.8966 65.1725H82.5518V69.5173H86.8966V65.1725Z" fill="white"/>
<path d="M104.276 65.1725H99.931V69.5173H104.276V65.1725Z" fill="white"/>
<path d="M108.621 65.1725H104.276V69.5173H108.621V65.1725Z" fill="white"/>
<path d="M117.31 65.1725H112.966V69.5173H117.31V65.1725Z" fill="white"/>
<path d="M126 65.1725H121.655V69.5173H126V65.1725Z" fill="white"/>
<path d="M13.0345 69.5173H8.68964V73.8621H13.0345V69.5173Z" fill="white"/>
<path d="M17.3793 69.5173H13.0345V73.8621H17.3793V69.5173Z" fill="white"/>
<path d="M21.7241 69.5173H17.3793V73.8621H21.7241V69.5173Z" fill="white"/>
<path d="M26.0689 69.5173H21.7241V73.8621H26.0689V69.5173Z" fill="white"/>
<path d="M30.4138 69.5173H26.069V73.8621H30.4138V69.5173Z" fill="white"/>
<path d="M39.1034 69.5173H34.7586V73.8621H39.1034V69.5173Z" fill="white"/>
<path d="M47.7931 69.5173H43.4482V73.8621H47.7931V69.5173Z" fill="white"/>
<path d="M65.1723 69.5173H60.8275V73.8621H65.1723V69.5173Z" fill="white"/>
<path d="M78.2069 69.5173H73.8621V73.8621H78.2069V69.5173Z" fill="white"/>
<path d="M86.8966 69.5173H82.5518V73.8621H86.8966V69.5173Z" fill="white"/>
<path d="M95.5862 69.5173H91.2414V73.8621H95.5862V69.5173Z" fill="white"/>
<path d="M104.276 69.5173H99.931V73.8621H104.276V69.5173Z" fill="white"/>
<path d="M112.966 69.5173H108.621V73.8621H112.966V69.5173Z" fill="white"/>
<path d="M117.31 69.5173H112.966V73.8621H117.31V69.5173Z" fill="white"/>
<path d="M4.34483 73.8621H0V78.2069H4.34483V73.8621Z" fill="white"/>
<path d="M17.3793 73.8621H13.0345V78.2069H17.3793V73.8621Z" fill="white"/>
<path d="M21.7241 73.8621H17.3793V78.2069H21.7241V73.8621Z" fill="white"/>
<path d="M26.0689 73.8621H21.7241V78.2069H26.0689V73.8621Z" fill="white"/>
<path d="M34.7586 73.8621H30.4138V78.2069H34.7586V73.8621Z" fill="white"/>
<path d="M43.4482 73.8621H39.1034V78.2069H43.4482V73.8621Z" fill="white"/>
<path d="M47.7931 73.8621H43.4482V78.2069H47.7931V73.8621Z" fill="white"/>
<path d="M56.4827 73.8621H52.1379V78.2069H56.4827V73.8621Z" fill="white"/>
<path d="M69.5173 73.8621H65.1725V78.2069H69.5173V73.8621Z" fill="white"/>
<path d="M73.8621 73.8621H69.5173V78.2069H73.8621V73.8621Z" fill="white"/>
<path d="M82.5517 73.8621H78.2069V78.2069H82.5517V73.8621Z" fill="white"/>
<path d="M86.8966 73.8621H82.5518V78.2069H86.8966V73.8621Z" fill="white"/>
<path d="M99.9311 73.8621H95.5862V78.2069H99.9311V73.8621Z" fill="white"/>
<path d="M104.276 73.8621H99.931V78.2069H104.276V73.8621Z" fill="white"/>
<path d="M108.621 73.8621H104.276V78.2069H108.621V73.8621Z" fill="white"/>
<path d="M117.31 73.8621H112.966V78.2069H117.31V73.8621Z" fill="white"/>
<path d="M121.655 73.8621H117.31V78.2069H121.655V73.8621Z" fill="white"/>
<path d="M126 73.8621H121.655V78.2069H126V73.8621Z" fill="white"/>
<path d="M4.34483 78.2069H0V82.5517H4.34483V78.2069Z" fill="white"/>
<path d="M8.68968 78.2069H4.34485V82.5517H8.68968V78.2069Z" fill="white"/>
<path d="M30.4138 78.2069H26.069V82.5517H30.4138V78.2069Z" fill="white"/>
<path d="M39.1034 78.2069H34.7586V82.5517H39.1034V78.2069Z" fill="white"/>
<path d="M60.8276 78.2069H56.4827V82.5517H60.8276V78.2069Z" fill="white"/>
<path d="M65.1723 78.2069H60.8275V82.5517H65.1723V78.2069Z" fill="white"/>
<path d="M69.5173 78.2069H65.1725V82.5517H69.5173V78.2069Z" fill="white"/>
<path d="M78.2069 78.2069H73.8621V82.5517H78.2069V78.2069Z" fill="white"/>
<path d="M86.8966 78.2069H82.5518V82.5517H86.8966V78.2069Z" fill="white"/>
<path d="M108.621 78.2069H104.276V82.5517H108.621V78.2069Z" fill="white"/>
<path d="M112.966 78.2069H108.621V82.5517H112.966V78.2069Z" fill="white"/>
<path d="M126 78.2069H121.655V82.5517H126V78.2069Z" fill="white"/>
<path d="M4.34483 82.5518H0V86.8966H4.34483V82.5518Z" fill="white"/>
<path d="M21.7241 82.5518H17.3793V86.8966H21.7241V82.5518Z" fill="white"/>
<path d="M26.0689 82.5518H21.7241V86.8966H26.0689V82.5518Z" fill="white"/>
<path d="M34.7586 82.5518H30.4138V86.8966H34.7586V82.5518Z" fill="white"/>
<path d="M39.1034 82.5518H34.7586V86.8966H39.1034V82.5518Z" fill="white"/>
<path d="M43.4482 82.5518H39.1034V86.8966H43.4482V82.5518Z" fill="white"/>
<path d="M47.7931 82.5518H43.4482V86.8966H47.7931V82.5518Z" fill="white"/>
<path d="M56.4827 82.5518H52.1379V86.8966H56.4827V82.5518Z" fill="white"/>
<path d="M65.1723 82.5518H60.8275V86.8966H65.1723V82.5518Z" fill="white"/>
<path d="M69.5173 82.5518H65.1725V86.8966H69.5173V82.5518Z" fill="white"/>
<path d="M73.8621 82.5518H69.5173V86.8966H73.8621V82.5518Z" fill="white"/>
<path d="M91.2414 82.5518H86.8966V86.8966H91.2414V82.5518Z" fill="white"/>
<path d="M99.9311 82.5518H95.5862V86.8966H99.9311V82.5518Z" fill="white"/>
<path d="M4.34483 86.8966H0V91.2414H4.34483V86.8966Z" fill="white"/>
<path d="M17.3793 86.8966H13.0345V91.2414H17.3793V86.8966Z" fill="white"/>
<path d="M26.0689 86.8966H21.7241V91.2414H26.0689V86.8966Z" fill="white"/>
<path d="M30.4138 86.8966H26.069V91.2414H30.4138V86.8966Z" fill="white"/>
<path d="M39.1034 86.8966H34.7586V91.2414H39.1034V86.8966Z" fill="white"/>
<path d="M52.1379 86.8966H47.7931V91.2414H52.1379V86.8966Z" fill="white"/>
<path d="M56.4827 86.8966H52.1379V91.2414H56.4827V86.8966Z" fill="white"/>
<path d="M69.5173 86.8966H65.1725V91.2414H69.5173V86.8966Z" fill="white"/>
<path d="M78.2069 86.8966H73.8621V91.2414H78.2069V86.8966Z" fill="white"/>
<path d="M86.8966 86.8966H82.5518V91.2414H86.8966V86.8966Z" fill="white"/>
<path d="M91.2414 86.8966H86.8966V91.2414H91.2414V86.8966Z" fill="white"/>
<path d="M95.5862 86.8966H91.2414V91.2414H95.5862V86.8966Z" fill="white"/>
<path d="M99.9311 86.8966H95.5862V91.2414H99.9311V86.8966Z" fill="white"/>
<path d="M104.276 86.8966H99.931V91.2414H104.276V86.8966Z" fill="white"/>
<path d="M108.621 86.8966H104.276V91.2414H108.621V86.8966Z" fill="white"/>
<path d="M117.31 86.8966H112.966V91.2414H117.31V86.8966Z" fill="white"/>
<path d="M121.655 86.8966H117.31V91.2414H121.655V86.8966Z" fill="white"/>
<path d="M126 86.8966H121.655V91.2414H126V86.8966Z" fill="white"/>
<path d="M39.1034 91.2414H34.7586V95.5862H39.1034V91.2414Z" fill="white"/>
<path d="M52.1379 91.2414H47.7931V95.5862H52.1379V91.2414Z" fill="white"/>
<path d="M56.4827 91.2414H52.1379V95.5862H56.4827V91.2414Z" fill="white"/>
<path d="M60.8276 91.2414H56.4827V95.5862H60.8276V91.2414Z" fill="white"/>
<path d="M69.5173 91.2414H65.1725V95.5862H69.5173V91.2414Z" fill="white"/>
<path d="M78.2069 91.2414H73.8621V95.5862H78.2069V91.2414Z" fill="white"/>
<path d="M82.5517 91.2414H78.2069V95.5862H82.5517V91.2414Z" fill="white"/>
<path d="M91.2414 91.2414H86.8966V95.5862H91.2414V91.2414Z" fill="white"/>
<path d="M108.621 91.2414H104.276V95.5862H108.621V91.2414Z" fill="white"/>
<path d="M112.966 91.2414H108.621V95.5862H112.966V91.2414Z" fill="white"/>
<path d="M60.8276 95.5862H56.4827V99.9311H60.8276V95.5862Z" fill="white"/>
<path d="M65.1723 95.5862H60.8275V99.9311H65.1723V95.5862Z" fill="white"/>
<path d="M69.5173 95.5862H65.1725V99.9311H69.5173V95.5862Z" fill="white"/>
<path d="M73.8621 95.5862H69.5173V99.9311H73.8621V95.5862Z" fill="white"/>
<path d="M86.8966 95.5862H82.5518V99.9311H86.8966V95.5862Z" fill="white"/>
<path d="M91.2414 95.5862H86.8966V99.9311H91.2414V95.5862Z" fill="white"/>
<path d="M99.9311 95.5862H95.5862V99.9311H99.9311V95.5862Z" fill="white"/>
<path d="M108.621 95.5862H104.276V99.9311H108.621V95.5862Z" fill="white"/>
<path d="M112.966 95.5862H108.621V99.9311H112.966V95.5862Z" fill="white"/>
<path d="M117.31 95.5862H112.966V99.9311H117.31V95.5862Z" fill="white"/>
<path d="M52.1379 99.931H47.7931V104.276H52.1379V99.931Z" fill="white"/>
<path d="M60.8276 99.931H56.4827V104.276H60.8276V99.931Z" fill="white"/>
<path d="M82.5517 99.931H78.2069V104.276H82.5517V99.931Z" fill="white"/>
<path d="M86.8966 99.931H82.5518V104.276H86.8966V99.931Z" fill="white"/>
<path d="M91.2414 99.931H86.8966V104.276H91.2414V99.931Z" fill="white"/>
<path d="M108.621 99.931H104.276V104.276H108.621V99.931Z" fill="white"/>
<path d="M121.655 99.931H117.31V104.276H121.655V99.931Z" fill="white"/>
<path d="M126 99.931H121.655V104.276H126V99.931Z" fill="white"/>
<path d="M43.4482 104.276H39.1034V108.621H43.4482V104.276Z" fill="white"/>
<path d="M56.4827 104.276H52.1379V108.621H56.4827V104.276Z" fill="white"/>
<path d="M60.8276 104.276H56.4827V108.621H60.8276V104.276Z" fill="white"/>
<path d="M69.5173 104.276H65.1725V108.621H69.5173V104.276Z" fill="white"/>
<path d="M73.8621 104.276H69.5173V108.621H73.8621V104.276Z" fill="white"/>
<path d="M86.8966 104.276H82.5518V108.621H86.8966V104.276Z" fill="white"/>
<path d="M91.2414 104.276H86.8966V108.621H91.2414V104.276Z" fill="white"/>
<path d="M95.5862 104.276H91.2414V108.621H95.5862V104.276Z" fill="white"/>
<path d="M99.9311 104.276H95.5862V108.621H99.9311V104.276Z" fill="white"/>
<path d="M104.276 104.276H99.931V108.621H104.276V104.276Z" fill="white"/>
<path d="M108.621 104.276H104.276V108.621H108.621V104.276Z" fill="white"/>
<path d="M112.966 104.276H108.621V108.621H112.966V104.276Z" fill="white"/>
<path d="M121.655 104.276H117.31V108.621H121.655V104.276Z" fill="white"/>
<path d="M126 104.276H121.655V108.621H126V104.276Z" fill="white"/>
<path d="M43.4482 108.621H39.1034V112.966H43.4482V108.621Z" fill="white"/>
<path d="M69.5173 108.621H65.1725V112.966H69.5173V108.621Z" fill="white"/>
<path d="M73.8621 108.621H69.5173V112.966H73.8621V108.621Z" fill="white"/>
<path d="M78.2069 108.621H73.8621V112.966H78.2069V108.621Z" fill="white"/>
<path d="M82.5517 108.621H78.2069V112.966H82.5517V108.621Z" fill="white"/>
<path d="M86.8966 108.621H82.5518V112.966H86.8966V108.621Z" fill="white"/>
<path d="M91.2414 108.621H86.8966V112.966H91.2414V108.621Z" fill="white"/>
<path d="M95.5862 108.621H91.2414V112.966H95.5862V108.621Z" fill="white"/>
<path d="M112.966 108.621H108.621V112.966H112.966V108.621Z" fill="white"/>
<path d="M117.31 108.621H112.966V112.966H117.31V108.621Z" fill="white"/>
<path d="M126 108.621H121.655V112.966H126V108.621Z" fill="white"/>
<path d="M52.1379 112.966H47.7931V117.31H52.1379V112.966Z" fill="white"/>
<path d="M56.4827 112.966H52.1379V117.31H56.4827V112.966Z" fill="white"/>
<path d="M60.8276 112.966H56.4827V117.31H60.8276V112.966Z" fill="white"/>
<path d="M65.1723 112.966H60.8275V117.31H65.1723V112.966Z" fill="white"/>
<path d="M69.5173 112.966H65.1725V117.31H69.5173V112.966Z" fill="white"/>
<path d="M73.8621 112.966H69.5173V117.31H73.8621V112.966Z" fill="white"/>
<path d="M78.2069 112.966H73.8621V117.31H78.2069V112.966Z" fill="white"/>
<path d="M86.8966 112.966H82.5518V117.31H86.8966V112.966Z" fill="white"/>
<path d="M91.2414 112.966H86.8966V117.31H91.2414V112.966Z" fill="white"/>
<path d="M95.5862 112.966H91.2414V117.31H95.5862V112.966Z" fill="white"/>
<path d="M99.9311 112.966H95.5862V117.31H99.9311V112.966Z" fill="white"/>
<path d="M104.276 112.966H99.931V117.31H104.276V112.966Z" fill="white"/>
<path d="M108.621 112.966H104.276V117.31H108.621V112.966Z" fill="white"/>
<path d="M112.966 112.966H108.621V117.31H112.966V112.966Z" fill="white"/>
<path d="M117.31 112.966H112.966V117.31H117.31V112.966Z" fill="white"/>
<path d="M121.655 112.966H117.31V117.31H121.655V112.966Z" fill="white"/>
<path d="M43.4482 117.31H39.1034V121.655H43.4482V117.31Z" fill="white"/>
<path d="M47.7931 117.31H43.4482V121.655H47.7931V117.31Z" fill="white"/>
<path d="M52.1379 117.31H47.7931V121.655H52.1379V117.31Z" fill="white"/>
<path d="M56.4827 117.31H52.1379V121.655H56.4827V117.31Z" fill="white"/>
<path d="M65.1723 117.31H60.8275V121.655H65.1723V117.31Z" fill="white"/>
<path d="M69.5173 117.31H65.1725V121.655H69.5173V117.31Z" fill="white"/>
<path d="M99.9311 117.31H95.5862V121.655H99.9311V117.31Z" fill="white"/>
<path d="M104.276 117.31H99.931V121.655H104.276V117.31Z" fill="white"/>
<path d="M112.966 117.31H108.621V121.655H112.966V117.31Z" fill="white"/>
<path d="M117.31 117.31H112.966V121.655H117.31V117.31Z" fill="white"/>
<path d="M126 117.31H121.655V121.655H126V117.31Z" fill="white"/>
<path d="M39.1034 121.655H34.7586V126H39.1034V121.655Z" fill="white"/>
<path d="M47.7931 121.655H43.4482V126H47.7931V121.655Z" fill="white"/>
<path d="M56.4827 121.655H52.1379V126H56.4827V121.655Z" fill="white"/>
<path d="M60.8276 121.655H56.4827V126H60.8276V121.655Z" fill="white"/>
<path d="M65.1723 121.655H60.8275V126H65.1723V121.655Z" fill="white"/>
<path d="M78.2069 121.655H73.8621V126H78.2069V121.655Z" fill="white"/>
<path d="M82.5517 121.655H78.2069V126H82.5517V121.655Z" fill="white"/>
<path d="M86.8966 121.655H82.5518V126H86.8966V121.655Z" fill="white"/>
<path d="M99.9311 121.655H95.5862V126H99.9311V121.655Z" fill="white"/>
<path d="M104.276 121.655H99.931V126H104.276V121.655Z" fill="white"/>
<path d="M108.621 121.655H104.276V126H108.621V121.655Z" fill="white"/>
<path d="M117.31 121.655H112.966V126H117.31V121.655Z" fill="white"/>
<path d="M25.8517 0H4.56207H0V4.56207V25.8517V30.4138H4.56207H25.8517H30.4138V25.8517V4.56207V0H25.8517ZM25.8517 25.8517H4.56207V4.56207H25.8517V25.8517Z" fill="white"/>
<path d="M121.438 0H100.148H95.5862V4.56207V25.8517V30.4138H100.148H121.438H126V25.8517V4.56207V0H121.438ZM121.438 25.8517H100.148V4.56207H121.438V25.8517Z" fill="white"/>
<path d="M25.8517 95.5862H4.56207H0V100.148V121.438V126H4.56207H25.8517H30.4138V121.438V100.148V95.5862H25.8517ZM25.8517 121.438H4.56207V100.148H25.8517V121.438Z" fill="white"/>
<path d="M21.7241 8.68964H8.68964V21.7241H21.7241V8.68964Z" fill="white"/>
<path d="M117.31 8.68964H104.276V21.7241H117.31V8.68964Z" fill="white"/>
<path d="M21.7241 104.276H8.68964V117.31H21.7241V104.276Z" fill="white"/>
</mask>
<g mask="url(#mask0_8_2063)">
<path d="M126 0H0V126H126V0Z" fill="url(#paint0_linear_8_2063)"/>
</g>
<defs>
<linearGradient id="paint0_linear_8_2063" x1="0" y1="0" x2="0" y2="126" gradientUnits="userSpaceOnUse">
<stop offset="0.05" stop-color="#E9A870"/>
<stop offset="0.95" stop-color="#A8784F"/>
</linearGradient>
</defs>
</svg>
